<svg xmlns="http://www.w3.org/2000/svg" viewBox="0 0 226.54 65.75"><defs><style>.cls-1{fill:#2d348e;}.cls-2{fill:#fff;}</style></defs><title>+boton</title><g id="Layer_2" data-name="Layer 2"><g id="Layer_1-2" data-name="Layer 1"><rect class="cls-1" width="226.54" height="65.75" rx="32.88" ry="32.88"/><path class="cls-2" d="M41.84,36.68l3.66-8.26a1.43,1.43,0,0,1,1.35-.92H47a1.41,1.41,0,0,1,1.33.92L52,36.68a1.13,1.13,0,0,1,.12.47A1.09,1.09,0,0,1,51,38.25a1.18,1.18,0,0,1-1.11-.79l-.7-1.65H44.57l-.73,1.72a1.13,1.13,0,0,1-1.06.72,1.06,1.06,0,0,1-1.06-1.08A1.23,1.23,0,0,1,41.84,36.68Zm6.5-2.91-1.46-3.46-1.46,3.46Z"/><path class="cls-2" d="M53.08,32.94v0a5.39,5.39,0,0,1,5.5-5.43,5.82,5.82,0,0,1,3.58,1,1.15,1.15,0,0,1,.48.93,1.14,1.14,0,0,1-1.14,1.14,1.12,1.12,0,0,1-.71-.24,3.68,3.68,0,0,0-2.29-.72,3.15,3.15,0,0,0-3,3.27v0a3.15,3.15,0,0,0,3.18,3.33,3.69,3.69,0,0,0,2.17-.63v-1.5H59.29a1,1,0,0,1-1-1,1,1,0,0,1,1-1h2.64a1.15,1.15,0,0,1,1.15,1.16v2.55a1.56,1.56,0,0,1-.81,1.47,7,7,0,0,1-3.67,1A5.25,5.25,0,0,1,53.08,32.94Z"/><path class="cls-2" d="M65.3,28.82a1.15,1.15,0,0,1,1.16-1.16H70.1a4.18,4.18,0,0,1,3.06,1.07,3.3,3.3,0,0,1,.9,2.4v0a3.21,3.21,0,0,1-2.1,3.2l1.6,1.95a1.35,1.35,0,0,1,.38.89,1.07,1.07,0,0,1-1.09,1.06,1.38,1.38,0,0,1-1.14-.6L69.45,34.8H67.61V37.1a1.16,1.16,0,1,1-2.31,0ZM70,32.77c1.13,0,1.77-.6,1.77-1.49v0c0-1-.69-1.5-1.81-1.5H67.61v3Z"/><path class="cls-2" d="M76.14,37V28.82a1.15,1.15,0,0,1,1.16-1.16h5.82a1,1,0,0,1,1,1,1,1,0,0,1-1,1H78.44v2.13h4a1,1,0,0,1,1,1,1,1,0,0,1-1,1h-4v2.21h4.75a1,1,0,0,1,1,1,1,1,0,0,1-1,1H77.3A1.15,1.15,0,0,1,76.14,37Z"/><path class="cls-2" d="M85.73,32.94v0a5.39,5.39,0,0,1,5.5-5.43,5.82,5.82,0,0,1,3.58,1,1.15,1.15,0,0,1,.48.93,1.14,1.14,0,0,1-1.14,1.14,1.12,1.12,0,0,1-.71-.24,3.68,3.68,0,0,0-2.29-.72,3.15,3.15,0,0,0-3,3.27v0a3.15,3.15,0,0,0,3.18,3.33,3.69,3.69,0,0,0,2.17-.63v-1.5H91.94a1,1,0,0,1-1-1,1,1,0,0,1,1-1h2.64a1.15,1.15,0,0,1,1.15,1.16v2.55a1.56,1.56,0,0,1-.81,1.47,7,7,0,0,1-3.67,1A5.25,5.25,0,0,1,85.73,32.94Z"/><path class="cls-2" d="M97.37,36.68,101,28.41a1.43,1.43,0,0,1,1.35-.92h.14a1.41,1.41,0,0,1,1.33.92l3.66,8.26a1.13,1.13,0,0,1,.12.47,1.09,1.09,0,0,1-1.1,1.11,1.18,1.18,0,0,1-1.11-.79l-.7-1.65H100.1l-.73,1.72a1.13,1.13,0,0,1-1.06.72,1.06,1.06,0,0,1-1.06-1.08A1.23,1.23,0,0,1,97.37,36.68Zm6.5-2.91-1.46-3.46L101,33.77Z"/><path class="cls-2" d="M109.44,28.82a1.15,1.15,0,0,1,1.16-1.16h3.64a4.18,4.18,0,0,1,3.06,1.07,3.3,3.3,0,0,1,.9,2.4v0a3.21,3.21,0,0,1-2.1,3.2l1.6,1.95a1.35,1.35,0,0,1,.38.89A1.07,1.07,0,0,1,117,38.25a1.38,1.38,0,0,1-1.14-.6L113.6,34.8h-1.84V37.1a1.16,1.16,0,1,1-2.31,0Zm4.65,3.95c1.13,0,1.77-.6,1.77-1.49v0c0-1-.69-1.5-1.81-1.5h-2.29v3Z"/><path class="cls-2" d="M124.58,37.05a1.08,1.08,0,0,1-.44-.87,1.06,1.06,0,0,1,1.08-1.07,1.11,1.11,0,0,1,.66.21,4.43,4.43,0,0,0,2.69.95c.94,0,1.51-.37,1.51-1v0c0-.58-.36-.88-2.12-1.33-2.12-.54-3.48-1.12-3.48-3.21v0c0-1.91,1.53-3.17,3.68-3.17a6.1,6.1,0,0,1,3.33.93,1.05,1.05,0,0,1,.51.92,1.06,1.06,0,0,1-1.08,1.07,1.11,1.11,0,0,1-.58-.17,4.37,4.37,0,0,0-2.21-.71c-.88,0-1.35.4-1.35.92v0c0,.69.45.92,2.26,1.38,2.13.56,3.33,1.32,3.33,3.15v0c0,2.08-1.59,3.25-3.86,3.25A6.77,6.77,0,0,1,124.58,37.05Z"/><path class="cls-2" d="M134.49,28.73a1.15,1.15,0,1,1,2.31,0V37.1a1.15,1.15,0,1,1-2.31,0Z"/><path class="cls-2" d="M139.43,28.76a1.15,1.15,0,0,1,1.16-1.16h.24a1.43,1.43,0,0,1,1.2.67l4.46,5.85V28.72a1.14,1.14,0,1,1,2.28,0v8.35a1.15,1.15,0,0,1-1.15,1.15h-.08a1.43,1.43,0,0,1-1.2-.67l-4.62-6.06v5.62a1.14,1.14,0,0,1-2.28,0Z"/><path class="cls-2" d="M151.39,28.73a1.15,1.15,0,1,1,2.31,0V37.1a1.15,1.15,0,1,1-2.31,0Z"/><path class="cls-2" d="M156.32,37V28.82a1.15,1.15,0,0,1,1.16-1.16h5.82a1,1,0,0,1,1,1,1,1,0,0,1-1,1h-4.68v2.13h4a1,1,0,0,1,1,1,1,1,0,0,1-1,1h-4v2.21h4.75a1,1,0,0,1,1,1,1,1,0,0,1-1,1h-5.89A1.15,1.15,0,0,1,156.32,37Z"/><path class="cls-2" d="M166.16,37.05a1.08,1.08,0,0,1-.43-.87,1.06,1.06,0,0,1,1.08-1.07,1.11,1.11,0,0,1,.66.21,4.43,4.43,0,0,0,2.69.95c.94,0,1.51-.37,1.51-1v0c0-.58-.36-.88-2.12-1.33-2.11-.54-3.48-1.12-3.48-3.21v0c0-1.91,1.53-3.17,3.67-3.17a6.1,6.1,0,0,1,3.33.93,1.07,1.07,0,0,1-.57,2,1.11,1.11,0,0,1-.58-.17,4.36,4.36,0,0,0-2.21-.71c-.88,0-1.35.4-1.35.92v0c0,.69.45.92,2.26,1.38,2.13.56,3.33,1.32,3.33,3.15v0c0,2.08-1.59,3.25-3.85,3.25A6.77,6.77,0,0,1,166.16,37.05Z"/><path class="cls-2" d="M178.19,29.79H176a1.06,1.06,0,1,1,0-2.13h6.75a1.06,1.06,0,1,1,0,2.13H180.5v7.3a1.15,1.15,0,1,1-2.31,0Z"/><path class="cls-2" d="M185.46,28.82a1.15,1.15,0,0,1,1.16-1.16h3.64a4.18,4.18,0,0,1,3.06,1.07,3.29,3.29,0,0,1,.9,2.4v0a3.21,3.21,0,0,1-2.1,3.2l1.6,1.95a1.35,1.35,0,0,1,.38.89A1.07,1.07,0,0,1,193,38.25a1.38,1.38,0,0,1-1.14-.6l-2.25-2.85h-1.84V37.1a1.16,1.16,0,0,1-2.31,0Zm4.65,3.95c1.13,0,1.77-.6,1.77-1.49v0c0-1-.69-1.5-1.81-1.5h-2.29v3Z"/><path class="cls-2" d="M195.84,32.94v0a5.58,5.58,0,0,1,11.16,0v0a5.58,5.58,0,0,1-11.16,0Zm8.75,0v0a3.19,3.19,0,0,0-3.18-3.3,3.14,3.14,0,0,0-3.15,3.27v0a3.19,3.19,0,0,0,3.18,3.3A3.14,3.14,0,0,0,204.59,32.94Z"/><polygon class="cls-2" points="33.9 33.94 27.75 33.94 27.75 40.09 25.69 40.09 25.69 33.94 19.54 33.94 19.54 31.89 25.69 31.89 25.69 25.74 27.75 25.74 27.75 31.89 33.9 31.89 33.9 33.94"/></g></g></svg>