<svg xmlns="http://www.w3.org/2000/svg" viewBox="0 0 227.54 66.75"><defs><style>.cls-1{fill:none;stroke:#2d348e;stroke-miterlimit:10;}.cls-2{fill:#2d348e;}</style></defs><title>agregar_boton</title><g id="Layer_2" data-name="Layer 2"><g id="Layer_1-2" data-name="Layer 1"><rect class="cls-1" x="0.5" y="0.5" width="226.54" height="65.75" rx="32.88" ry="32.88"/><path class="cls-2" d="M42.34,37.14,46,28.88A1.43,1.43,0,0,1,47.35,28h.14a1.41,1.41,0,0,1,1.33.92l3.66,8.26a1.13,1.13,0,0,1,.12.47,1.09,1.09,0,0,1-1.09,1.11,1.18,1.18,0,0,1-1.11-.79l-.7-1.65H45.07L44.34,38a1.13,1.13,0,0,1-1.06.72,1.06,1.06,0,0,1-1.06-1.08A1.23,1.23,0,0,1,42.34,37.14Zm6.5-2.91-1.46-3.46-1.46,3.46Z"/><path class="cls-2" d="M53.58,33.41v0a5.39,5.39,0,0,1,5.5-5.43,5.82,5.82,0,0,1,3.58,1,1.15,1.15,0,0,1,.48.93A1.14,1.14,0,0,1,62,31a1.12,1.12,0,0,1-.71-.24A3.68,3.68,0,0,0,59,30.08a3.15,3.15,0,0,0-3,3.27v0a3.15,3.15,0,0,0,3.18,3.33,3.69,3.69,0,0,0,2.17-.63v-1.5H59.79a1,1,0,0,1-1-1,1,1,0,0,1,1-1h2.64a1.15,1.15,0,0,1,1.15,1.16v2.55a1.56,1.56,0,0,1-.81,1.47,7,7,0,0,1-3.67,1A5.25,5.25,0,0,1,53.58,33.41Z"/><path class="cls-2" d="M65.8,29.28A1.15,1.15,0,0,1,67,28.13H70.6a4.18,4.18,0,0,1,3.06,1.07,3.3,3.3,0,0,1,.9,2.4v0a3.21,3.21,0,0,1-2.1,3.2l1.6,1.95a1.35,1.35,0,0,1,.38.89,1.07,1.07,0,0,1-1.09,1.06,1.38,1.38,0,0,1-1.14-.6L70,35.27H68.11v2.29a1.16,1.16,0,1,1-2.31,0Zm4.65,3.95c1.13,0,1.77-.6,1.77-1.49v0c0-1-.69-1.5-1.81-1.5H68.11v3Z"/><path class="cls-2" d="M76.64,37.47V29.28a1.15,1.15,0,0,1,1.16-1.16h5.82a1,1,0,0,1,1,1,1,1,0,0,1-1,1H78.94v2.13h4a1,1,0,0,1,1,1,1,1,0,0,1-1,1h-4v2.21h4.75a1,1,0,0,1,1,1,1,1,0,0,1-1,1H77.8A1.15,1.15,0,0,1,76.64,37.47Z"/><path class="cls-2" d="M86.23,33.41v0a5.39,5.39,0,0,1,5.5-5.43,5.82,5.82,0,0,1,3.58,1,1.15,1.15,0,0,1,.48.93A1.14,1.14,0,0,1,94.66,31,1.12,1.12,0,0,1,94,30.8a3.68,3.68,0,0,0-2.29-.72,3.15,3.15,0,0,0-3,3.27v0a3.15,3.15,0,0,0,3.18,3.33A3.69,3.69,0,0,0,94,36.08v-1.5H92.44a1,1,0,0,1-1-1,1,1,0,0,1,1-1h2.64a1.15,1.15,0,0,1,1.15,1.16v2.55a1.56,1.56,0,0,1-.81,1.47,7,7,0,0,1-3.67,1A5.25,5.25,0,0,1,86.23,33.41Z"/><path class="cls-2" d="M97.87,37.14l3.66-8.26a1.43,1.43,0,0,1,1.35-.92H103a1.41,1.41,0,0,1,1.33.92L108,37.14a1.13,1.13,0,0,1,.12.47,1.09,1.09,0,0,1-1.1,1.11,1.18,1.18,0,0,1-1.11-.79l-.7-1.65H100.6L99.86,38a1.13,1.13,0,0,1-1.06.72,1.06,1.06,0,0,1-1.06-1.08A1.23,1.23,0,0,1,97.87,37.14Zm6.5-2.91-1.46-3.46-1.46,3.46Z"/><path class="cls-2" d="M109.94,29.28a1.15,1.15,0,0,1,1.16-1.16h3.64a4.18,4.18,0,0,1,3.06,1.07,3.3,3.3,0,0,1,.9,2.4v0a3.21,3.21,0,0,1-2.1,3.2l1.6,1.95a1.35,1.35,0,0,1,.38.89,1.07,1.07,0,0,1-1.09,1.06,1.38,1.38,0,0,1-1.14-.6l-2.25-2.85h-1.84v2.29a1.16,1.16,0,1,1-2.31,0Zm4.65,3.95c1.13,0,1.77-.6,1.77-1.49v0c0-1-.69-1.5-1.81-1.5h-2.29v3Z"/><path class="cls-2" d="M125.08,37.52a1.08,1.08,0,0,1-.44-.87,1.06,1.06,0,0,1,1.08-1.07,1.11,1.11,0,0,1,.66.21,4.43,4.43,0,0,0,2.69.95c.94,0,1.51-.37,1.51-1v0c0-.58-.36-.88-2.12-1.33-2.12-.54-3.48-1.12-3.48-3.21v0c0-1.91,1.53-3.17,3.68-3.17a6.1,6.1,0,0,1,3.33.93,1.05,1.05,0,0,1,.51.92,1.06,1.06,0,0,1-1.08,1.07,1.11,1.11,0,0,1-.58-.17,4.37,4.37,0,0,0-2.21-.71c-.88,0-1.35.4-1.35.92v0c0,.69.45.92,2.26,1.38,2.13.56,3.33,1.32,3.33,3.15v0c0,2.08-1.59,3.25-3.86,3.25A6.77,6.77,0,0,1,125.08,37.52Z"/><path class="cls-2" d="M135,29.19a1.15,1.15,0,1,1,2.31,0v8.37a1.15,1.15,0,1,1-2.31,0Z"/><path class="cls-2" d="M139.93,29.22a1.15,1.15,0,0,1,1.16-1.16h.24a1.43,1.43,0,0,1,1.2.67L147,34.59V29.18a1.14,1.14,0,1,1,2.28,0v8.35a1.15,1.15,0,0,1-1.15,1.15H148a1.43,1.43,0,0,1-1.2-.67L142.21,32v5.63a1.14,1.14,0,0,1-2.28,0Z"/><path class="cls-2" d="M151.89,29.19a1.15,1.15,0,1,1,2.31,0v8.37a1.15,1.15,0,1,1-2.31,0Z"/><path class="cls-2" d="M156.82,37.47V29.28A1.15,1.15,0,0,1,158,28.13h5.82a1,1,0,0,1,1,1,1,1,0,0,1-1,1h-4.68v2.13h4a1,1,0,0,1,1,1,1,1,0,0,1-1,1h-4v2.21h4.75a1,1,0,0,1,1,1,1,1,0,0,1-1,1H158A1.15,1.15,0,0,1,156.82,37.47Z"/><path class="cls-2" d="M166.66,37.52a1.08,1.08,0,0,1-.43-.87,1.06,1.06,0,0,1,1.08-1.07,1.11,1.11,0,0,1,.66.21,4.43,4.43,0,0,0,2.69.95c.94,0,1.51-.37,1.51-1v0c0-.58-.36-.88-2.12-1.33-2.11-.54-3.48-1.12-3.48-3.21v0c0-1.91,1.53-3.17,3.67-3.17a6.1,6.1,0,0,1,3.33.93,1.07,1.07,0,0,1-.57,2,1.11,1.11,0,0,1-.58-.17,4.36,4.36,0,0,0-2.21-.71c-.88,0-1.35.4-1.35.92v0c0,.69.45.92,2.26,1.38,2.13.56,3.33,1.32,3.33,3.15v0c0,2.08-1.59,3.25-3.85,3.25A6.77,6.77,0,0,1,166.66,37.52Z"/><path class="cls-2" d="M178.69,30.26h-2.22a1.06,1.06,0,1,1,0-2.13h6.75a1.06,1.06,0,1,1,0,2.13H181v7.3a1.15,1.15,0,1,1-2.31,0Z"/><path class="cls-2" d="M186,29.28a1.15,1.15,0,0,1,1.16-1.16h3.64a4.18,4.18,0,0,1,3.06,1.07,3.29,3.29,0,0,1,.9,2.4v0a3.21,3.21,0,0,1-2.1,3.2l1.6,1.95a1.35,1.35,0,0,1,.38.89,1.07,1.07,0,0,1-1.09,1.06,1.38,1.38,0,0,1-1.14-.6l-2.25-2.85h-1.84v2.29a1.16,1.16,0,0,1-2.31,0Zm4.65,3.95c1.13,0,1.77-.6,1.77-1.49v0c0-1-.69-1.5-1.81-1.5h-2.29v3Z"/><path class="cls-2" d="M196.34,33.41v0a5.58,5.58,0,0,1,11.16,0v0a5.58,5.58,0,0,1-11.16,0Zm8.75,0v0a3.19,3.19,0,0,0-3.18-3.3,3.14,3.14,0,0,0-3.15,3.27v0a3.19,3.19,0,0,0,3.18,3.3A3.14,3.14,0,0,0,205.09,33.41Z"/><polygon class="cls-2" points="34.4 34.4 28.25 34.4 28.25 40.55 26.19 40.55 26.19 34.4 20.04 34.4 20.04 32.35 26.19 32.35 26.19 26.2 28.25 26.2 28.25 32.35 34.4 32.35 34.4 34.4"/></g></g></svg>