<svg xmlns="http://www.w3.org/2000/svg" width="90" height="90" viewBox="0 0 90 90"><defs><style>.a{fill:none;}.b{fill:#49c3b1;}</style></defs><rect class="a" width="90" height="90"/><g transform="translate(3 3)"><path class="b" d="M68.333,40.333V3H21.667V21.667H3V87H40.333V68.333h9.333V87H87V40.333ZM21.667,77.667H12.333V68.333h9.333Zm0-18.667H12.333V49.667h9.333Zm0-18.667H12.333V31h9.333ZM40.333,59H31V49.667h9.333Zm0-18.667H31V31h9.333Zm0-18.667H31V12.333h9.333ZM59,59H49.667V49.667H59Zm0-18.667H49.667V31H59Zm0-18.667H49.667V12.333H59Zm18.667,56H68.333V68.333h9.333Zm0-18.667H68.333V49.667h9.333Z" transform="translate(-3 -3)"/></g></svg>