<svg xmlns="http://www.w3.org/2000/svg" viewBox="0 0 226.54 65.75"><defs><style>.cls-1{fill:#dfe0e2;}.cls-2{fill:#707070;}</style></defs><title>atras</title><g id="Layer_2" data-name="Layer 2"><g id="Layer_1-2" data-name="Layer 1"><rect class="cls-1" width="226.54" height="65.75" rx="32.88" ry="32.88"/><path class="cls-2" d="M88.08,38.31,91.74,30a1.43,1.43,0,0,1,1.35-.92h.14a1.41,1.41,0,0,1,1.33.92l3.66,8.26a1.13,1.13,0,0,1,.12.47,1.09,1.09,0,0,1-1.1,1.11,1.18,1.18,0,0,1-1.11-.79l-.7-1.65H90.81l-.73,1.72a1.13,1.13,0,0,1-1.06.72,1.06,1.06,0,0,1-1.06-1.08A1.23,1.23,0,0,1,88.08,38.31Zm6.5-2.91-1.46-3.46L91.67,35.4Z"/><path class="cls-2" d="M101.48,31.42H99.25a1.06,1.06,0,1,1,0-2.13H106a1.06,1.06,0,1,1,0,2.13h-2.22v7.3a1.15,1.15,0,1,1-2.31,0Z"/><path class="cls-2" d="M108.75,30.45a1.15,1.15,0,0,1,1.16-1.16h3.64a4.18,4.18,0,0,1,3.06,1.07,3.3,3.3,0,0,1,.9,2.4v0a3.21,3.21,0,0,1-2.1,3.2l1.6,1.95a1.35,1.35,0,0,1,.38.89,1.07,1.07,0,0,1-1.09,1.06,1.38,1.38,0,0,1-1.14-.6l-2.25-2.85h-1.84v2.29a1.16,1.16,0,1,1-2.31,0Zm4.65,3.95c1.13,0,1.77-.6,1.77-1.49v0c0-1-.69-1.5-1.81-1.5h-2.29v3Z"/><path class="cls-2" d="M119,38.31,122.67,30a1.43,1.43,0,0,1,1.35-.92h.14a1.41,1.41,0,0,1,1.33.92l3.66,8.26a1.13,1.13,0,0,1,.12.47,1.09,1.09,0,0,1-1.09,1.11,1.18,1.18,0,0,1-1.11-.79l-.7-1.65h-4.62L121,39.16a1.13,1.13,0,0,1-1.06.72,1.06,1.06,0,0,1-1.06-1.08A1.23,1.23,0,0,1,119,38.31Zm6.5-2.91L124,31.93l-1.46,3.46ZM123.43,28a.84.84,0,0,1,.15-.41l.82-1.29a1,1,0,0,1,.85-.51c.56,0,1.27.34,1.27.69a.74.74,0,0,1-.3.54l-.93.87a1.67,1.67,0,0,1-1.3.5C123.67,28.41,123.43,28.26,123.43,28Z"/><path class="cls-2" d="M130.8,38.68a1.08,1.08,0,0,1-.44-.87,1.06,1.06,0,0,1,1.08-1.07,1.11,1.11,0,0,1,.66.21,4.43,4.43,0,0,0,2.69.95c.94,0,1.51-.37,1.51-1v0c0-.58-.36-.88-2.11-1.33-2.12-.54-3.48-1.12-3.48-3.21v0c0-1.91,1.53-3.17,3.67-3.17a6.1,6.1,0,0,1,3.33.93,1.07,1.07,0,0,1-.57,2,1.11,1.11,0,0,1-.58-.17,4.37,4.37,0,0,0-2.2-.71c-.89,0-1.35.4-1.35.92v0c0,.69.45.92,2.26,1.38,2.13.56,3.33,1.32,3.33,3.15v0c0,2.08-1.59,3.25-3.85,3.25A6.77,6.77,0,0,1,130.8,38.68Z"/><path class="cls-2" d="M30.64,40.09l-9.71-4.61A2.67,2.67,0,0,1,19.18,33v-.29a2.67,2.67,0,0,1,1.76-2.45l9.71-4.61a2.25,2.25,0,0,1,1.07-.29,1.78,1.78,0,0,1,1.76,1.82A1.86,1.86,0,0,1,32.25,29l-8.7,3.89,8.7,3.89a2,2,0,0,1,1.21,1.81,1.77,1.77,0,0,1-1.9,1.79A2.11,2.11,0,0,1,30.64,40.09Z"/></g></g></svg>