<?xml version="1.0" encoding="utf-8"?>
<!-- Generator: Adobe Illustrator 21.0.0, SVG Export Plug-In . SVG Version: 6.00 Build 0)  -->
<svg version="1.1" id="Layer_1" xmlns="http://www.w3.org/2000/svg" xmlns:xlink="http://www.w3.org/1999/xlink" x="0px" y="0px"
	 viewBox="0 0 226.5 65.8" style="enable-background:new 0 0 226.5 65.8;" xml:space="preserve">
<style type="text/css">
	.st0{fill:#101E8E;}
	.st1{fill:#FFFFFF;}
</style>
<title>azul_ver_detalle</title>
<g id="Layer_2">
	<g id="Layer_1-2">
		<g id="Layer_2-2">
			<g id="Layer_1-2-2">
				<path class="st0" d="M32.9,0h160.8c18.2,0,32.9,14.7,32.9,32.9l0,0l0,0c0,18.2-14.7,32.9-32.9,32.9l0,0H32.9
					C14.7,65.8,0,51,0,32.9l0,0C0,14.7,14.7,0,32.9,0z"/>
			</g>
			<path class="st1" d="M30.8,36.7H30l-0.3-0.3c2.3-2.7,2-6.8-0.7-9.2s-6.8-2-9.2,0.7s-2,6.8,0.7,9.2c2.4,2.1,6,2.1,8.5,0l0.3,0.3
				v0.8l5,5l1.5-1.5L30.8,36.7z M24.8,36.7c-2.5,0-4.5-2-4.5-4.5s2-4.5,4.5-4.5s4.5,2,4.5,4.5S27.2,36.7,24.8,36.7z"/>
		</g>
		<path class="st1" d="M64,37.4l-3.4-8.1c-0.1-0.2-0.1-0.4-0.1-0.6c0-0.6,0.5-1.1,1.1-1.1c0,0,0,0,0,0c0.5,0,1,0.3,1.2,0.8l2.6,6.8
			l2.7-6.9c0.2-0.4,0.6-0.7,1.1-0.7c0.6,0,1.1,0.5,1.1,1.1c0,0,0,0,0,0c0,0.2,0,0.3-0.1,0.5l-3.4,8.2c-0.2,0.6-0.7,0.9-1.3,0.9h-0.2
			C64.7,38.3,64.2,37.9,64,37.4z"/>
		<path class="st1" d="M72.1,37v-8.2c0-0.6,0.5-1.2,1.1-1.2c0,0,0,0,0,0h5.8c0.6,0,1,0.4,1,1s-0.4,1-1,1h-4.7v2.1h4c0.6,0,1,0.4,1,1
			s-0.4,1-1,1h-4V36h4.8c0.6,0,1,0.4,1,1s-0.4,1-1,1h-5.9C72.7,38,72.2,37.6,72.1,37z"/>
		<path class="st1" d="M82.2,28.8c0-0.6,0.5-1.2,1.1-1.2c0,0,0,0,0,0H87c1.1-0.1,2.2,0.3,3,1.1c0.6,0.6,0.9,1.5,0.9,2.4l0,0
			c0.1,1.4-0.8,2.7-2.1,3.2l1.6,2c0.2,0.2,0.4,0.6,0.4,0.9c0,0.6-0.5,1.1-1.1,1.1c0,0,0,0,0,0c-0.5,0-0.9-0.2-1.1-0.6l-2.2-2.8h-1.8
			v2.3c-0.1,0.6-0.6,1.1-1.3,1c-0.6-0.1-1-0.5-1-1V28.8z M86.8,32.7c1.1,0,1.8-0.6,1.8-1.5l0,0c0-1-0.7-1.5-1.8-1.5h-2.3v3
			L86.8,32.7z"/>
		<path class="st1" d="M97.5,28.8c0-0.6,0.5-1.2,1.1-1.2c0,0,0,0,0,0h2.9c2.9-0.2,5.4,2,5.6,4.9c0,0.1,0,0.2,0,0.4l0,0
			c0,2.9-2.4,5.3-5.3,5.3c-0.1,0-0.2,0-0.3,0h-2.9c-0.6,0-1.1-0.5-1.2-1.1V28.8z M101.6,36c1.7,0.1,3.1-1.2,3.2-2.8
			c0-0.1,0-0.2,0-0.3l0,0c0.1-1.7-1.2-3.1-2.8-3.2c-0.1,0-0.2,0-0.3,0h-1.8V36H101.6z"/>
		<path class="st1" d="M109.2,37v-8.2c0-0.6,0.5-1.2,1.1-1.2c0,0,0,0,0,0h5.8c0.6,0,1,0.4,1,1s-0.4,1-1,1h-4.7v2.1h4
			c0.6,0,1,0.4,1,1s-0.4,1-1,1h-4V36h4.8c0.6,0,1,0.4,1,1s-0.4,1-1,1h-5.9C109.8,38,109.3,37.6,109.2,37z"/>
		<path class="st1" d="M121.7,29.8h-2.2c-0.6,0-1.1-0.5-1.1-1.1c0-0.6,0.5-1.1,1.1-1.1h6.8c0.6,0,1.1,0.5,1.1,1.1s-0.5,1.1-1.1,1.1
			H124v7.3c0,0.6-0.5,1.2-1.2,1.2s-1.2-0.5-1.2-1.2V29.8z"/>
		<path class="st1" d="M127.3,36.6l3.7-8.3c0.2-0.6,0.8-0.9,1.4-0.9h0.1c0.6,0,1.1,0.4,1.3,0.9l3.7,8.3c0.1,0.1,0.1,0.3,0.1,0.5
			c0,0.6-0.5,1.1-1.1,1.1c0,0,0,0,0,0c-0.5,0-0.9-0.3-1.1-0.8l-0.7-1.7H130l-0.7,1.7c-0.2,0.4-0.6,0.7-1.1,0.7
			c-0.6,0-1.1-0.5-1.1-1.1c0,0,0,0,0,0C127.2,37,127.2,36.8,127.3,36.6z M133.8,33.7l-1.5-3.5l-1.5,3.5H133.8z"/>
		<path class="st1" d="M139.4,28.7c0.1-0.6,0.6-1.1,1.3-1c0.6,0.1,1,0.5,1,1V36h4.3c0.6,0,1,0.5,1,1.1c0,0.6-0.5,1-1,1h-5.4
			c-0.6,0-1.2-0.5-1.2-1.1V28.7z"/>
		<path class="st1" d="M148.7,28.7c0.1-0.6,0.6-1.1,1.3-1c0.6,0.1,1,0.5,1,1V36h4.3c0.6,0,1,0.5,1,1.1c0,0.6-0.5,1-1,1h-5.4
			c-0.6,0-1.1-0.5-1.2-1.1V28.7z"/>
		<path class="st1" d="M158,37v-8.2c0-0.6,0.5-1.2,1.1-1.2c0,0,0,0,0,0h5.8c0.6,0,1,0.4,1,1s-0.4,1-1,1h-4.7v2.1h4c0.6,0,1,0.4,1,1
			s-0.4,1-1,1h-4V36h4.7c0.6,0,1,0.4,1,1s-0.4,1-1,1h-5.9C158.6,38,158.1,37.5,158,37z"/>
	</g>
</g>
</svg>
