<svg xmlns="http://www.w3.org/2000/svg" viewBox="0 0 226.54 65.75"><defs><style>.cls-1{fill:#fff;}.cls-2{fill:#101e8e;}</style></defs><title>continuar</title><g id="Capa_2" data-name="Capa 2"><g id="Layer_1" data-name="Layer 1"><g id="Layer_2" data-name="Layer 2"><g id="Layer_1-2" data-name="Layer 1-2"><path class="cls-1" d="M32.88,0H193.66a32.88,32.88,0,0,1,32.88,32.88h0a32.88,32.88,0,0,1-32.88,32.88H32.88A32.88,32.88,0,0,1,0,32.88H0A32.88,32.88,0,0,1,32.88,0Z"/></g></g><path class="cls-2" d="M66.37,32.9v0a5.34,5.34,0,0,1,5.47-5.43,5.56,5.56,0,0,1,3.51,1.07,1.16,1.16,0,0,1,.45.92,1.13,1.13,0,0,1-1.14,1.13,1.21,1.21,0,0,1-.69-.23,3.46,3.46,0,0,0-2.14-.75,3.11,3.11,0,0,0-3,3.27v0a3.12,3.12,0,0,0,3,3.3,3.37,3.37,0,0,0,2.28-.83A1.07,1.07,0,1,1,75.48,37a5.53,5.53,0,0,1-9.12-4.08Z"/><path class="cls-2" d="M77.14,32.9v0a5.58,5.58,0,0,1,11.16,0v0a5.58,5.58,0,0,1-11.16,0Zm8.74,0v0a3.19,3.19,0,0,0-3.18-3.3,3.14,3.14,0,0,0-3.15,3.27v0a3.19,3.19,0,0,0,3.18,3.3A3.14,3.14,0,0,0,85.88,32.9Z"/><path class="cls-2" d="M90.35,28.72a1.15,1.15,0,0,1,1.16-1.16h.24a1.43,1.43,0,0,1,1.2.67l4.45,5.85V28.68a1.14,1.14,0,0,1,2.28,0V37a1.15,1.15,0,0,1-1.15,1.16h-.07a1.43,1.43,0,0,1-1.2-.67l-4.62-6.06v5.63a1.14,1.14,0,0,1-2.28,0Z"/><path class="cls-2" d="M104.65,29.76h-2.22a1.06,1.06,0,1,1,0-2.13h6.75a1.06,1.06,0,1,1,0,2.13H107v7.3a1.15,1.15,0,0,1-2.31,0Z"/><path class="cls-2" d="M112,28.69a1.16,1.16,0,0,1,2.31,0v8.37a1.16,1.16,0,0,1-2.31,0Z"/><path class="cls-2" d="M117,28.72a1.15,1.15,0,0,1,1.16-1.16h.24a1.43,1.43,0,0,1,1.2.67L124,34.09V28.68a1.14,1.14,0,0,1,2.28,0V37a1.15,1.15,0,0,1-1.16,1.16h-.08a1.43,1.43,0,0,1-1.2-.67l-4.62-6.06v5.63a1.14,1.14,0,0,1-2.28,0Z"/><path class="cls-2" d="M128.64,33.62V28.69a1.16,1.16,0,0,1,2.31,0v4.88c0,1.71.85,2.59,2.26,2.59s2.26-.85,2.26-2.52v-5a1.15,1.15,0,0,1,2.31,0v4.86c0,3.18-1.78,4.74-4.6,4.74S128.64,36.71,128.64,33.62Z"/><path class="cls-2" d="M139.34,36.64,143,28.38a1.43,1.43,0,0,1,1.35-.92h.13a1.41,1.41,0,0,1,1.33.92l3.66,8.26a1.12,1.12,0,0,1,.12.46,1.09,1.09,0,0,1-1.09,1.11,1.18,1.18,0,0,1-1.11-.79l-.71-1.65h-4.62l-.74,1.72a1.13,1.13,0,0,1-1.07.72,1.06,1.06,0,0,1-1.06-1.08A1.22,1.22,0,0,1,139.34,36.64Zm6.5-2.91-1.46-3.46-1.46,3.46Z"/><path class="cls-2" d="M151.42,28.78a1.15,1.15,0,0,1,1.16-1.15h3.64a4.19,4.19,0,0,1,3.06,1.06,3.3,3.3,0,0,1,.9,2.4v0a3.21,3.21,0,0,1-2.1,3.2l1.6,2a1.34,1.34,0,0,1,.38.88A1.07,1.07,0,0,1,159,38.21a1.38,1.38,0,0,1-1.14-.6l-2.25-2.85h-1.84v2.29a1.16,1.16,0,0,1-2.31,0Zm4.65,3.95c1.13,0,1.77-.6,1.77-1.49v0c0-1-.69-1.5-1.81-1.5h-2.29v3Z"/></g></g></svg>