<?xml version="1.0" encoding="utf-8"?>
<!-- Generator: Adobe Illustrator 21.0.0, SVG Export Plug-In . SVG Version: 6.00 Build 0)  -->
<svg version="1.1" id="Layer_1" xmlns="http://www.w3.org/2000/svg" xmlns:xlink="http://www.w3.org/1999/xlink" x="0px" y="0px"
	 viewBox="0 0 226.5 65.8" style="enable-background:new 0 0 226.5 65.8;" xml:space="preserve">
<style type="text/css">
	.st0{fill:#101E8E;}
	.st1{fill:#FFFFFF;}
</style>
<title>denuncie_aqui</title>
<g id="Layer_2">
	<g id="Layer_1-2">
		<path class="st0" d="M32.9,0h160.8c18.2,0,32.9,14.7,32.9,32.9l0,0c0,18.2-14.7,32.9-32.9,32.9H32.9C14.7,65.8,0,51,0,32.9l0,0
			C0,14.7,14.7,0,32.9,0z"/>
		<path class="st1" d="M52.8,28.6c0-0.6,0.5-1.2,1.1-1.2c0,0,0,0,0,0h2.9c2.9-0.2,5.4,2,5.6,4.9c0,0.1,0,0.2,0,0.4l0,0
			c0,2.9-2.4,5.3-5.3,5.3c-0.1,0-0.2,0-0.3,0h-2.9c-0.6,0-1.2-0.5-1.2-1.1c0,0,0,0,0,0L52.8,28.6z M56.9,35.9
			c1.7,0.1,3.1-1.2,3.1-2.9c0-0.1,0-0.2,0-0.3l0,0c0.1-1.7-1.2-3.1-2.8-3.2c-0.1,0-0.2,0-0.3,0h-1.8v6.3L56.9,35.9z"/>
		<path class="st1" d="M64.5,36.8v-8.2c0-0.6,0.5-1.2,1.1-1.2c0,0,0,0,0,0h5.8c0.6,0,1,0.4,1,1s-0.4,1-1,1h-4.7v2.1h4
			c0.6,0,1,0.4,1,1s-0.4,1-1,1h-4v2.2h4.8c0.6,0,1,0.4,1,1s-0.4,1-1,1h-5.9C65.1,37.8,64.6,37.4,64.5,36.8z"/>
		<path class="st1" d="M74.5,28.5c0-0.6,0.5-1.2,1.1-1.2c0,0,0,0,0,0h0.2c0.5,0,0.9,0.3,1.2,0.7l4.5,5.9v-5.4c0-0.6,0.5-1.1,1.1-1.1
			c0.6,0,1.1,0.5,1.1,1.1c0,0,0,0,0,0v8.3c0,0.6-0.5,1.2-1.1,1.2c0,0,0,0,0,0h-0.1c-0.5,0-0.9-0.3-1.2-0.7l-4.6-6.1v5.6
			c0,0.6-0.5,1.1-1.1,1.1c-0.6,0-1.1-0.5-1.1-1.1L74.5,28.5z"/>
		<path class="st1" d="M86.2,33.4v-4.9c0.1-0.6,0.6-1.1,1.3-1c0.6,0.1,1,0.5,1,1v4.9c0,1.7,0.8,2.6,2.3,2.6s2.3-0.9,2.3-2.5v-5
			c0.1-0.6,0.6-1.1,1.3-1c0.6,0.1,1,0.5,1,1v4.9c0,3.2-1.8,4.7-4.6,4.7S86.2,36.5,86.2,33.4z"/>
		<path class="st1" d="M97.7,28.5c0-0.6,0.5-1.2,1.1-1.2c0,0,0,0,0,0h0.2c0.5,0,0.9,0.3,1.2,0.7l4.4,5.9v-5.4c0-0.6,0.5-1.1,1.1-1.1
			c0.6,0,1.1,0.5,1.1,1.1c0,0,0,0,0,0v8.3c0,0.6-0.5,1.2-1.1,1.2c0,0,0,0,0,0h-0.1c-0.5,0-0.9-0.3-1.2-0.7l-4.6-6.1v5.6
			c0,0.6-0.5,1.1-1.1,1.1c-0.6,0-1.1-0.5-1.1-1.1L97.7,28.5z"/>
		<path class="st1" d="M109.1,32.7L109.1,32.7c-0.1-2.9,2.3-5.4,5.2-5.4c0.1,0,0.1,0,0.2,0c1.3-0.1,2.5,0.3,3.5,1.1
			c0.3,0.2,0.5,0.6,0.4,0.9c0,0.6-0.5,1.1-1.1,1.1c0,0,0,0,0,0c-0.2,0-0.5-0.1-0.7-0.2c-0.6-0.5-1.4-0.7-2.1-0.8
			c-1.7,0.1-3.1,1.5-3,3.2c0,0,0,0,0,0.1l0,0c-0.1,1.7,1.2,3.2,2.9,3.3c0,0,0,0,0.1,0c0.8,0,1.6-0.3,2.3-0.8c0.4-0.4,1.1-0.4,1.5,0
			s0.4,1.1,0,1.5c0,0-0.1,0.1-0.1,0.1c-2.3,2-5.8,1.7-7.8-0.6C109.6,35.2,109.1,34,109.1,32.7L109.1,32.7z"/>
		<path class="st1" d="M120.8,28.5c0-0.6,0.5-1.2,1.2-1.2s1.2,0.5,1.2,1.2v8.4c0,0.6-0.5,1.2-1.2,1.2s-1.2-0.5-1.2-1.2V28.5z"/>
		<path class="st1" d="M125.7,36.8v-8.2c0-0.6,0.5-1.2,1.1-1.2c0,0,0,0,0,0h5.8c0.6,0,1,0.4,1,1s-0.4,1-1,1H128v2.1h4
			c0.6,0,1,0.4,1,1s-0.4,1-1,1h-4v2.2h4.8c0.6,0,1,0.4,1,1s-0.4,1-1,1h-5.9C126.3,37.8,125.8,37.4,125.7,36.8z"/>
		<path class="st1" d="M139.6,36.5l3.7-8.3c0.2-0.6,0.8-0.9,1.4-0.9h0.1c0.6,0,1.1,0.4,1.3,0.9l3.7,8.3c0.1,0.1,0.1,0.3,0.1,0.5
			c0,0.6-0.5,1.1-1.1,1.1c-0.5,0-0.9-0.3-1.1-0.8l-0.7-1.6h-4.6l-0.7,1.7c-0.2,0.4-0.6,0.7-1.1,0.7c-0.6,0-1-0.5-1-1
			C139.5,36.8,139.6,36.6,139.6,36.5z M146.1,33.5l-1.5-3.5l-1.5,3.5H146.1z"/>
		<path class="st1" d="M150.9,32.7L150.9,32.7c0-3.1,2.5-5.6,5.6-5.6s5.6,2.5,5.6,5.6l0,0c0,1.1-0.3,2.1-0.9,3l0.4,0.4
			c0.3,0.2,0.4,0.5,0.4,0.9c0,0.6-0.5,1.1-1.1,1.1c-0.3,0-0.6-0.1-0.8-0.3l-0.6-0.5c-0.9,0.6-2,0.9-3.1,0.9c-3,0.1-5.5-2.2-5.6-5.2
			C150.9,32.9,150.9,32.8,150.9,32.7z M156.4,33.9c0-0.6,0.5-1.1,1.1-1.1c0.3,0,0.6,0.1,0.8,0.3l1.2,1c0.2-0.5,0.3-0.9,0.3-1.4l0,0
			c0.1-1.8-1.3-3.2-3.1-3.3c0,0-0.1,0-0.1,0c-1.7,0-3.1,1.4-3.2,3.1c0,0,0,0.1,0,0.1l0,0c-0.1,1.8,1.3,3.2,3.1,3.3c0,0,0.1,0,0.1,0
			c0.5,0,0.9-0.1,1.4-0.3l-1.1-0.9C156.5,34.5,156.4,34.2,156.4,33.9L156.4,33.9z"/>
		<path class="st1" d="M163.9,33.4v-4.9c-0.1-0.6,0.4-1.2,1-1.3c0.6-0.1,1.2,0.4,1.3,1c0,0.1,0,0.1,0,0.2v4.9c0,1.7,0.9,2.6,2.3,2.6
			s2.3-0.9,2.3-2.5v-5c0-0.6,0.5-1.2,1.2-1.2s1.2,0.5,1.2,1.2v4.9c0,3.2-1.8,4.7-4.6,4.7S163.9,36.5,163.9,33.4z"/>
		<path class="st1" d="M175.6,28.5c0-0.6,0.5-1.2,1.2-1.2s1.2,0.5,1.2,1.2v8.4c0,0.6-0.5,1.2-1.2,1.2s-1.2-0.5-1.2-1.2V28.5z
			 M176.1,26.3c0-0.1,0.1-0.3,0.1-0.4l0.8-1.3c0.2-0.3,0.5-0.5,0.9-0.5c0.6,0,1.3,0.3,1.3,0.7c0,0.2-0.1,0.4-0.3,0.5l-0.9,0.9
			c-0.3,0.3-0.8,0.5-1.3,0.5C176.3,26.7,176.1,26.6,176.1,26.3z"/>
		<polygon class="st1" points="34.2,33.9 28,33.9 28,40 26,40 26,33.9 19.8,33.9 19.8,31.9 26,31.9 26,25.7 28,25.7 28,31.9 
			34.2,31.9 		"/>
	</g>
</g>
</svg>
