<svg xmlns="http://www.w3.org/2000/svg" viewBox="0 0 227.54 66.75"><defs><style>.cls-1,.cls-4{fill:none;}.cls-1{stroke:#2d348e;stroke-miterlimit:10;}.cls-2{fill:#2d348e;}.cls-3{fill:#1f2c95;}</style></defs><title>editar_boton</title><g id="Layer_2" data-name="Layer 2"><g id="Layer_1-2" data-name="Layer 1"><rect class="cls-1" x="0.5" y="0.5" width="226.54" height="65.75" rx="32.88" ry="32.88"/><path class="cls-2" d="M86.16,37.51V29.32a1.15,1.15,0,0,1,1.16-1.16h5.82a1,1,0,0,1,1,1,1,1,0,0,1-1,1H88.45v2.13h4a1,1,0,0,1,1,1,1,1,0,0,1-1,1h-4v2.21h4.75a1,1,0,0,1,1,1,1,1,0,0,1-1,1H87.31A1.15,1.15,0,0,1,86.16,37.51Z"/><path class="cls-2" d="M96.21,29.32a1.15,1.15,0,0,1,1.16-1.16h2.94a5.23,5.23,0,0,1,5.58,5.22v0a5.26,5.26,0,0,1-5.58,5.25H97.36a1.15,1.15,0,0,1-1.16-1.16Zm4.1,7.26a3,3,0,0,0,3.16-3.13v0a3,3,0,0,0-3.16-3.17H98.52v6.33Z"/><path class="cls-2" d="M108,29.23a1.16,1.16,0,1,1,2.31,0V37.6a1.16,1.16,0,1,1-2.31,0Z"/><path class="cls-2" d="M115.42,30.29H113.2a1.06,1.06,0,1,1,0-2.13H120a1.06,1.06,0,1,1,0,2.13h-2.22v7.3a1.15,1.15,0,1,1-2.31,0Z"/><path class="cls-2" d="M121,37.18l3.66-8.26A1.43,1.43,0,0,1,126,28h.14a1.41,1.41,0,0,1,1.33.92l3.66,8.26a1.13,1.13,0,0,1,.12.47,1.09,1.09,0,0,1-1.09,1.11A1.18,1.18,0,0,1,129,38l-.7-1.65h-4.62L123,38a1.13,1.13,0,0,1-1.06.72,1.06,1.06,0,0,1-1.06-1.08A1.23,1.23,0,0,1,121,37.18Zm6.5-2.91L126,30.81l-1.46,3.46Z"/><path class="cls-2" d="M133.06,29.32a1.15,1.15,0,0,1,1.16-1.16h3.64a4.18,4.18,0,0,1,3.06,1.07,3.29,3.29,0,0,1,.9,2.4v0a3.21,3.21,0,0,1-2.1,3.2l1.6,1.95a1.35,1.35,0,0,1,.38.89,1.07,1.07,0,0,1-1.09,1.06,1.38,1.38,0,0,1-1.14-.6l-2.25-2.85h-1.84V37.6a1.16,1.16,0,0,1-2.31,0Zm4.65,3.95c1.13,0,1.77-.6,1.77-1.49v0c0-1-.69-1.5-1.81-1.5h-2.29v3Z"/><path class="cls-3" d="M18.49,38.63v3.75h3.75L33.3,31.32l-3.75-3.75ZM36.2,28.42a1,1,0,0,0,0-1.41l-2.34-2.34a1,1,0,0,0-1.41,0L30.62,26.5l3.75,3.75Z"/><path class="cls-4" d="M15.49,21.38h24v24h-24Z"/></g></g></svg>