<svg xmlns="http://www.w3.org/2000/svg" width="90" height="90" viewBox="0 0 90 90"><defs><style>.a{fill:none;}.b{fill:#fff;}</style></defs><rect class="a" width="90" height="90"/><g transform="translate(2 2)"><path class="b" d="M2,2V88H88V2ZM44.4,66.328a10.781,10.781,0,0,0,6.579-7.009c.559-2.408-.43-4.515-.86-6.88a10.373,10.373,0,0,1,.344-5.5c2.322,5.2,9.245,7.052,8.514,13.674C58.158,67.919,49.9,70.843,44.4,66.328ZM79.4,79.4H70.8V70.8H62.114A21.413,21.413,0,0,0,66.5,57.9c0-8.127-4.687-12.255-7.955-14.491C45.86,34.723,49.3,23.5,49.3,23.5,20.361,38.851,23.414,55.621,23.5,57.9c.129,4.128,2.107,8.9,5.289,12.9H19.2v8.6H10.6V10.6H79.4Z" transform="translate(-2 -2)"/></g></svg>