<svg xmlns="http://www.w3.org/2000/svg" viewBox="0 0 212.85 45.29"><defs><style>.cls-1{fill:#fff;}.cls-2{fill:#2d348e;}</style></defs><title>guardar_borrador</title><g id="Layer_2" data-name="Layer 2"><g id="Layer_1-2" data-name="Layer 1"><path class="cls-1" d="M4.73,0H208.12c2.61,0,4.73,1.13,4.73,2.52V42.77c0,1.39-2.12,2.52-4.73,2.52H4.73C2.12,45.29,0,44.16,0,42.77V2.52C0,1.13,2.12,0,4.73,0"/><path class="cls-2" d="M7.91,23.45v0A6.06,6.06,0,0,1,14,17.27a6.46,6.46,0,0,1,4.06,1.21,1.06,1.06,0,0,1,.42.85,1,1,0,0,1-1,1,1.1,1.1,0,0,1-.65-.24A4.52,4.52,0,0,0,14,19.19a4,4,0,0,0-3.86,4.2v0a4,4,0,0,0,4,4.25,4.86,4.86,0,0,0,2.87-.9V24.54H14.68a.91.91,0,0,1-.94-.9.93.93,0,0,1,.94-.92H18A1,1,0,0,1,19,23.78V27a1.45,1.45,0,0,1-.73,1.33,7.58,7.58,0,0,1-4.23,1.29A5.9,5.9,0,0,1,7.91,23.45Z"/><path class="cls-2" d="M21.58,24.32v-5.9a1,1,0,0,1,2.09,0v5.81c0,2.21,1.14,3.38,3,3.38s3-1.1,3-3.3v-5.9a1,1,0,0,1,2.09,0v5.8c0,3.55-2,5.34-5.12,5.34S21.58,27.77,21.58,24.32Z"/><path class="cls-2" d="M33.65,28l4.42-9.86a1.33,1.33,0,0,1,1.26-.85h.1a1.3,1.3,0,0,1,1.24.85L45.09,28a.91.91,0,0,1,.12.44,1,1,0,0,1-1,1,1.08,1.08,0,0,1-1-.73l-1-2.23H36.45l-1,2.29a1,1,0,0,1-1,.66,1,1,0,0,1-1-1A1.07,1.07,0,0,1,33.65,28Zm7.79-3.37-2.09-4.81-2.09,4.81Z"/><path class="cls-2" d="M47.47,18.53a1,1,0,0,1,1.05-1.05h4.25a4.79,4.79,0,0,1,3.43,1.19,3.6,3.6,0,0,1,1,2.57v0a3.52,3.52,0,0,1-2.7,3.55l2.28,2.87a1.21,1.21,0,0,1,.34.8,1,1,0,0,1-1,1,1.19,1.19,0,0,1-1-.54l-2.89-3.69H49.56v3.2a1,1,0,0,1-2.09,0Zm5.15,4.84c1.5,0,2.45-.78,2.45-2v0c0-1.27-.92-2-2.46-2h-3v4Z"/><path class="cls-2" d="M59.76,18.53a1,1,0,0,1,1.05-1.05H64.2c3.74,0,6.32,2.57,6.32,5.92v0c0,3.35-2.58,5.95-6.32,5.95H60.81a1,1,0,0,1-1.05-1.05Zm4.44,8.94a3.88,3.88,0,0,0,4.13-4v0a3.9,3.9,0,0,0-4.13-4H61.85v8.09Z"/><path class="cls-2" d="M71.78,28l4.42-9.86a1.33,1.33,0,0,1,1.26-.85h.1a1.3,1.3,0,0,1,1.24.85L83.22,28a.91.91,0,0,1,.12.44,1,1,0,0,1-1,1,1.08,1.08,0,0,1-1-.73l-1-2.23H74.58l-1,2.29a1,1,0,0,1-1,.66,1,1,0,0,1-1-1A1.07,1.07,0,0,1,71.78,28Zm7.79-3.37-2.09-4.81-2.09,4.81Z"/><path class="cls-2" d="M85.6,18.53a1,1,0,0,1,1.05-1.05H90.9a4.79,4.79,0,0,1,3.43,1.19,3.6,3.6,0,0,1,1,2.57v0a3.52,3.52,0,0,1-2.7,3.55l2.28,2.87a1.21,1.21,0,0,1,.34.8,1,1,0,0,1-1,1,1.19,1.19,0,0,1-1-.54l-2.89-3.69H87.69v3.2a1,1,0,0,1-2.09,0Zm5.15,4.84c1.5,0,2.45-.78,2.45-2v0c0-1.27-.92-2-2.46-2h-3v4Z"/><path class="cls-2" d="M103,18.53A1,1,0,0,1,104,17.47h4.28a4.29,4.29,0,0,1,3.11,1.05,2.66,2.66,0,0,1,.8,2v0a2.83,2.83,0,0,1-1.7,2.65c1.39.48,2.36,1.27,2.36,2.89v0c0,2.13-1.75,3.26-4.4,3.26H104A1,1,0,0,1,103,28.32Zm4.91,4c1.34,0,2.24-.53,2.24-1.61v0c0-.94-.75-1.51-2.09-1.51h-3v3.16Zm.61,5c1.43,0,2.29-.56,2.29-1.63v0c0-1-.8-1.6-2.45-1.6H105v3.26Z"/><path class="cls-2" d="M114.74,23.45v0a6.22,6.22,0,0,1,12.44,0v0a6.22,6.22,0,0,1-12.44,0Zm10.25,0v0a4.08,4.08,0,0,0-4-4.23,4,4,0,0,0-4,4.2v0a4.06,4.06,0,0,0,4,4.22A4,4,0,0,0,125,23.45Z"/><path class="cls-2" d="M129.71,18.53a1,1,0,0,1,1.05-1.05H135a4.79,4.79,0,0,1,3.43,1.19,3.6,3.6,0,0,1,1,2.57v0a3.52,3.52,0,0,1-2.7,3.55L139,27.69a1.21,1.21,0,0,1,.34.8,1,1,0,0,1-1,1,1.19,1.19,0,0,1-1-.54l-2.89-3.69h-2.63v3.2a1,1,0,0,1-2.09,0Zm5.15,4.84c1.5,0,2.45-.78,2.45-2v0c0-1.27-.92-2-2.46-2h-3v4Z"/><path class="cls-2" d="M142,18.53a1,1,0,0,1,1.05-1.05h4.25a4.79,4.79,0,0,1,3.43,1.19,3.6,3.6,0,0,1,1,2.57v0a3.52,3.52,0,0,1-2.7,3.55l2.28,2.87a1.21,1.21,0,0,1,.34.8,1,1,0,0,1-1,1,1.19,1.19,0,0,1-1-.54l-2.89-3.69H144.1v3.2a1,1,0,0,1-2.09,0Zm5.15,4.84c1.5,0,2.45-.78,2.45-2v0c0-1.27-.92-2-2.46-2h-3v4Z"/><path class="cls-2" d="M153.62,28,158,18.15a1.33,1.33,0,0,1,1.26-.85h.1a1.3,1.3,0,0,1,1.24.85L165.06,28a.91.91,0,0,1,.12.44,1,1,0,0,1-1,1,1.08,1.08,0,0,1-1-.73l-1-2.23h-5.78l-1,2.29a1,1,0,0,1-1,.66,1,1,0,0,1-1-1A1.07,1.07,0,0,1,153.62,28Zm7.79-3.37-2.09-4.81-2.09,4.81Z"/><path class="cls-2" d="M167.44,18.53a1,1,0,0,1,1.05-1.05h3.38c3.74,0,6.32,2.57,6.32,5.92v0c0,3.35-2.58,5.95-6.32,5.95h-3.38a1,1,0,0,1-1.05-1.05Zm4.44,8.94a3.88,3.88,0,0,0,4.13-4v0a3.9,3.9,0,0,0-4.13-4h-2.35v8.09Z"/><path class="cls-2" d="M180.2,23.45v0a6.22,6.22,0,0,1,12.44,0v0a6.22,6.22,0,0,1-12.44,0Zm10.25,0v0a4.08,4.08,0,0,0-4-4.23,4,4,0,0,0-4,4.2v0a4.06,4.06,0,0,0,4,4.22A4,4,0,0,0,190.45,23.45Z"/><path class="cls-2" d="M195.18,18.53a1,1,0,0,1,1.05-1.05h4.25a4.79,4.79,0,0,1,3.43,1.19,3.6,3.6,0,0,1,1,2.57v0a3.52,3.52,0,0,1-2.7,3.55l2.28,2.87a1.21,1.21,0,0,1,.34.8,1,1,0,0,1-1,1,1.19,1.19,0,0,1-1-.54l-2.89-3.69h-2.63v3.2a1,1,0,0,1-2.09,0Zm5.15,4.84c1.5,0,2.45-.78,2.45-2v0c0-1.27-.92-2-2.46-2h-3v4Z"/></g></g></svg>