<svg xmlns="http://www.w3.org/2000/svg" viewBox="0 0 226.54 65.75"><defs><style>.cls-1{fill:#a32364;}.cls-2{fill:#fff;}</style></defs><title>nuevo_adjunto</title><g id="Layer_2" data-name="Layer 2"><g id="Layer_1-2" data-name="Layer 1"><rect class="cls-1" width="226.54" height="65.75" rx="32.88" ry="32.88"/><path class="cls-2" d="M58.37,28.72a1.15,1.15,0,0,1,1.16-1.16h.24a1.43,1.43,0,0,1,1.2.67l4.46,5.85V28.68a1.14,1.14,0,1,1,2.28,0V37a1.15,1.15,0,0,1-1.15,1.15h-.08a1.43,1.43,0,0,1-1.2-.67l-4.62-6.06v5.63a1.14,1.14,0,0,1-2.28,0Z"/><path class="cls-2" d="M70.06,33.63V28.69a1.16,1.16,0,1,1,2.31,0v4.87c0,1.71.85,2.59,2.26,2.59s2.26-.86,2.26-2.52v-5a1.16,1.16,0,1,1,2.31,0v4.86c0,3.18-1.79,4.74-4.61,4.74S70.06,36.72,70.06,33.63Z"/><path class="cls-2" d="M81.56,37V28.78a1.15,1.15,0,0,1,1.16-1.16h5.82a1,1,0,0,1,1,1,1,1,0,0,1-1,1H83.86v2.13h4a1,1,0,0,1,1,1,1,1,0,0,1-1,1h-4v2.21h4.75a1,1,0,0,1,1,1,1,1,0,0,1-1,1H82.72A1.15,1.15,0,0,1,81.56,37Z"/><path class="cls-2" d="M94.42,37.38,91,29.23a1.43,1.43,0,0,1-.13-.55A1.13,1.13,0,0,1,92,27.54a1.2,1.2,0,0,1,1.17.81l2.62,6.79,2.66-6.87a1.2,1.2,0,0,1,1.11-.74,1.11,1.11,0,0,1,1.14,1.11,1.33,1.33,0,0,1-.12.51l-3.43,8.22a1.36,1.36,0,0,1-1.3.92h-.15A1.35,1.35,0,0,1,94.42,37.38Z"/><path class="cls-2" d="M101.66,32.91v0a5.58,5.58,0,0,1,11.16,0v0a5.58,5.58,0,0,1-11.16,0Zm8.74,0v0a3.19,3.19,0,0,0-3.18-3.3,3.14,3.14,0,0,0-3.15,3.27v0a3.19,3.19,0,0,0,3.18,3.3A3.14,3.14,0,0,0,110.4,32.91Z"/><path class="cls-2" d="M118.79,36.64l3.66-8.26a1.43,1.43,0,0,1,1.35-.92h.13a1.41,1.41,0,0,1,1.33.92l3.66,8.26a1.13,1.13,0,0,1,.12.47A1.09,1.09,0,0,1,128,38.22a1.18,1.18,0,0,1-1.11-.79l-.71-1.65h-4.62l-.73,1.72a1.13,1.13,0,0,1-1.07.72,1.06,1.06,0,0,1-1.06-1.08A1.22,1.22,0,0,1,118.79,36.64Zm6.5-2.91-1.46-3.46-1.46,3.46Z"/><path class="cls-2" d="M130.86,28.78A1.15,1.15,0,0,1,132,27.63H135a5.23,5.23,0,0,1,5.58,5.22v0A5.26,5.26,0,0,1,135,38.13H132A1.15,1.15,0,0,1,130.86,37ZM135,36a3,3,0,0,0,3.16-3.13v0A3,3,0,0,0,135,29.71h-1.79V36Z"/><path class="cls-2" d="M141.61,37.36a1.15,1.15,0,0,1-.44-.89,1.1,1.1,0,0,1,1.1-1.11,1,1,0,0,1,.69.24,2.22,2.22,0,0,0,1.4.52c.9,0,1.44-.52,1.44-1.74v-5.7a1.15,1.15,0,1,1,2.31,0v5.8a3.81,3.81,0,0,1-1,2.8,3.75,3.75,0,0,1-2.73,1A4.45,4.45,0,0,1,141.61,37.36Z"/><path class="cls-2" d="M150.29,33.63V28.69a1.16,1.16,0,1,1,2.31,0v4.87c0,1.71.85,2.59,2.26,2.59s2.26-.86,2.26-2.52v-5a1.15,1.15,0,1,1,2.31,0v4.86c0,3.18-1.78,4.74-4.6,4.74S150.29,36.72,150.29,33.63Z"/><path class="cls-2" d="M161.8,28.72A1.15,1.15,0,0,1,163,27.57h.24a1.43,1.43,0,0,1,1.2.67l4.46,5.85V28.68a1.14,1.14,0,1,1,2.28,0V37A1.15,1.15,0,0,1,170,38.19h-.08a1.43,1.43,0,0,1-1.2-.67l-4.62-6.06v5.63a1.14,1.14,0,0,1-2.28,0Z"/><path class="cls-2" d="M176.09,29.76h-2.22a1.06,1.06,0,1,1,0-2.13h6.75a1.06,1.06,0,1,1,0,2.13H178.4v7.3a1.15,1.15,0,1,1-2.31,0Z"/><path class="cls-2" d="M182.45,32.91v0a5.58,5.58,0,0,1,11.16,0v0a5.58,5.58,0,0,1-11.16,0Zm8.75,0v0a3.19,3.19,0,0,0-3.18-3.3,3.14,3.14,0,0,0-3.15,3.27v0a3.19,3.19,0,0,0,3.18,3.3A3.14,3.14,0,0,0,191.19,32.91Z"/><polygon class="cls-2" points="34.17 33.9 28.02 33.9 28.02 40.05 25.97 40.05 25.97 33.9 19.82 33.9 19.82 31.85 25.97 31.85 25.97 25.7 28.02 25.7 28.02 31.85 34.17 31.85 34.17 33.9"/></g></g></svg>