<svg xmlns="http://www.w3.org/2000/svg" viewBox="0 0 93.81 10.86"><defs><style>.cls-1{fill:#101e8e;}</style></defs><title>solo_continuar</title><g id="Capa_2" data-name="Capa 2"><g id="Layer_1" data-name="Layer 1"><path class="cls-1" d="M0,5.46v0A5.34,5.34,0,0,1,5.47,0,5.56,5.56,0,0,1,9,1.07,1.16,1.16,0,0,1,9.43,2,1.13,1.13,0,0,1,8.29,3.11a1.21,1.21,0,0,1-.69-.23,3.46,3.46,0,0,0-2.14-.75,3.11,3.11,0,0,0-3,3.27v0a3.12,3.12,0,0,0,3,3.3,3.37,3.37,0,0,0,2.28-.83A1.07,1.07,0,1,1,9.12,9.54a5.27,5.27,0,0,1-3.73,1.32A5.3,5.3,0,0,1,0,5.46Z"/><path class="cls-1" d="M10.77,5.46v0A5.43,5.43,0,0,1,16.36,0a5.38,5.38,0,0,1,5.56,5.4v0a5.43,5.43,0,0,1-5.59,5.43A5.38,5.38,0,0,1,10.77,5.46Zm8.74,0v0a3.19,3.19,0,0,0-3.18-3.3A3.14,3.14,0,0,0,13.19,5.4v0a3.19,3.19,0,0,0,3.18,3.3A3.14,3.14,0,0,0,19.51,5.46Z"/><path class="cls-1" d="M24,1.28A1.15,1.15,0,0,1,25.14.12h.24a1.43,1.43,0,0,1,1.2.67L31,6.65V1.23a1.14,1.14,0,0,1,2.28,0V9.58a1.15,1.15,0,0,1-1.15,1.16h-.07a1.43,1.43,0,0,1-1.2-.67L26.27,4V9.63a1.14,1.14,0,0,1-2.28,0Z"/><path class="cls-1" d="M38.28,2.31H36.06a1.06,1.06,0,1,1,0-2.13h6.75a1.06,1.06,0,1,1,0,2.13H40.59v7.3a1.15,1.15,0,0,1-2.31,0Z"/><path class="cls-1" d="M45.66,1.25a1.16,1.16,0,0,1,2.31,0V9.62a1.16,1.16,0,0,1-2.31,0Z"/><path class="cls-1" d="M50.59,1.28A1.15,1.15,0,0,1,51.75.12H52a1.43,1.43,0,0,1,1.2.67l4.46,5.85V1.23a1.14,1.14,0,0,1,2.28,0V9.58a1.15,1.15,0,0,1-1.16,1.16h-.08a1.43,1.43,0,0,1-1.2-.67L52.88,4V9.63a1.14,1.14,0,0,1-2.28,0Z"/><path class="cls-1" d="M62.28,6.18V1.25a1.16,1.16,0,0,1,2.31,0V6.12c0,1.71.85,2.59,2.26,2.59s2.26-.85,2.26-2.52v-5a1.15,1.15,0,0,1,2.31,0V6.11c0,3.18-1.78,4.74-4.6,4.74S62.28,9.27,62.28,6.18Z"/><path class="cls-1" d="M73,9.2,76.63.93A1.43,1.43,0,0,1,78,0h.13a1.41,1.41,0,0,1,1.33.92L83.11,9.2a1.12,1.12,0,0,1,.12.46,1.09,1.09,0,0,1-1.09,1.11A1.18,1.18,0,0,1,81,10l-.71-1.65H75.71L75,10a1.13,1.13,0,0,1-1.07.72,1.06,1.06,0,0,1-1.06-1.08A1.22,1.22,0,0,1,73,9.2Zm6.5-2.91L78,2.82,76.56,6.29Z"/><path class="cls-1" d="M85,1.33A1.15,1.15,0,0,1,86.21.18h3.64a4.19,4.19,0,0,1,3.06,1.06,3.3,3.3,0,0,1,.9,2.4v0a3.21,3.21,0,0,1-2.1,3.2l1.6,2a1.34,1.34,0,0,1,.38.88,1.07,1.07,0,0,1-1.09,1.06,1.38,1.38,0,0,1-1.14-.6L89.21,7.32H87.36V9.62a1.16,1.16,0,0,1-2.31,0ZM89.7,5.28c1.13,0,1.77-.6,1.77-1.49v0c0-1-.69-1.5-1.81-1.5H87.36v3Z"/></g></g></svg>