<svg xmlns="http://www.w3.org/2000/svg" viewBox="0 0 226.54 65.75"><defs><style>.cls-1{fill:#fff;}.cls-2{fill:#1f2c95;}.cls-3{fill:#2d348e;}</style></defs><title>ver_detalle</title><g id="Layer_2" data-name="Layer 2"><g id="Layer_1-2" data-name="Layer 1"><g id="Layer_2-2" data-name="Layer 2"><g id="Layer_1-2-2" data-name="Layer 1-2"><path class="cls-1" d="M32.88,0H193.66a32.88,32.88,0,0,1,32.88,32.88h0a32.88,32.88,0,0,1-32.88,32.88H32.88A32.88,32.88,0,0,1,0,32.88H0A32.88,32.88,0,0,1,32.88,0Z"/></g><path class="cls-2" d="M30.76,36.72H30l-.28-.27a6.51,6.51,0,1,0-.7.7l.27.28v.79l5,5,1.49-1.49Zm-6,0a4.5,4.5,0,1,1,4.5-4.5,4.5,4.5,0,0,1-4.5,4.5Z"/></g><path class="cls-3" d="M64,37.37l-3.4-8.14a1.43,1.43,0,0,1-.14-.56,1.13,1.13,0,0,1,1.16-1.14,1.2,1.2,0,0,1,1.17.81l2.62,6.79,2.66-6.87a1.2,1.2,0,0,1,1.11-.73,1.11,1.11,0,0,1,1.14,1.11,1.34,1.34,0,0,1-.12.51L66.8,37.37a1.36,1.36,0,0,1-1.3.92h-.15A1.36,1.36,0,0,1,64,37.37Z"/><path class="cls-3" d="M72.13,37V28.78a1.15,1.15,0,0,1,1.16-1.15H79.1a1,1,0,0,1,1,1,1,1,0,0,1-1,1H74.42v2.13h4a1,1,0,0,1,1,1,1,1,0,0,1-1,1h-4v2.21h4.75a1,1,0,0,1,1,1,1,1,0,0,1-1,1H73.28A1.15,1.15,0,0,1,72.13,37Z"/><path class="cls-3" d="M82.18,28.78a1.15,1.15,0,0,1,1.16-1.15H87A4.18,4.18,0,0,1,90,28.69a3.3,3.3,0,0,1,.9,2.4v0a3.2,3.2,0,0,1-2.1,3.19l1.6,2a1.35,1.35,0,0,1,.38.88,1.07,1.07,0,0,1-1.09,1.06,1.38,1.38,0,0,1-1.14-.6l-2.25-2.85H84.49v2.29a1.16,1.16,0,0,1-2.31,0Zm4.65,3.94c1.13,0,1.77-.6,1.77-1.48v0c0-1-.69-1.5-1.81-1.5H84.49v3Z"/><path class="cls-3" d="M97.52,28.78a1.15,1.15,0,0,1,1.16-1.15h2.94a5.23,5.23,0,0,1,5.58,5.22v0a5.26,5.26,0,0,1-5.58,5.25H98.68A1.15,1.15,0,0,1,97.52,37ZM101.61,36a3,3,0,0,0,3.17-3.13v0a3,3,0,0,0-3.17-3.16H99.83V36Z"/><path class="cls-3" d="M109.25,37V28.78a1.15,1.15,0,0,1,1.16-1.15h5.82a1,1,0,0,1,1,1,1,1,0,0,1-1,1h-4.68v2.13h4a1,1,0,0,1,1,1,1,1,0,0,1-1,1h-4v2.21h4.75a1,1,0,0,1,1,1,1,1,0,0,1-1,1H110.4A1.15,1.15,0,0,1,109.25,37Z"/><path class="cls-3" d="M121.74,29.76h-2.22a1.06,1.06,0,1,1,0-2.13h6.75a1.06,1.06,0,1,1,0,2.13h-2.22v7.3a1.15,1.15,0,1,1-2.31,0Z"/><path class="cls-3" d="M127.31,36.64,131,28.38a1.43,1.43,0,0,1,1.35-.92h.13a1.41,1.41,0,0,1,1.33.92l3.66,8.26a1.12,1.12,0,0,1,.12.46,1.09,1.09,0,0,1-1.09,1.11,1.18,1.18,0,0,1-1.11-.79l-.71-1.65H130l-.74,1.73a1.14,1.14,0,0,1-1.07.72,1.06,1.06,0,0,1-1.06-1.08A1.22,1.22,0,0,1,127.31,36.64Zm6.5-2.91-1.46-3.46-1.46,3.46Z"/><path class="cls-3" d="M139.38,28.69a1.16,1.16,0,0,1,2.31,0V36H146a1.05,1.05,0,0,1,0,2.1h-5.43A1.15,1.15,0,0,1,139.38,37Z"/><path class="cls-3" d="M148.67,28.69a1.16,1.16,0,0,1,2.31,0V36h4.27a1.05,1.05,0,0,1,0,2.1h-5.43A1.15,1.15,0,0,1,148.67,37Z"/><path class="cls-3" d="M158,37V28.78a1.15,1.15,0,0,1,1.16-1.15h5.82a1,1,0,0,1,1,1,1,1,0,0,1-1,1h-4.68v2.13h4a1,1,0,0,1,1,1,1,1,0,0,1-1,1h-4v2.21H165a1,1,0,0,1,1,1,1,1,0,0,1-1,1h-5.89A1.15,1.15,0,0,1,158,37Z"/></g></g></svg>