<svg xmlns="http://www.w3.org/2000/svg" viewBox="0 0 61.41 10.86"><defs><style>.cls-1{fill:#2d348e;}</style></defs><title>volver_sinfondo</title><g id="Layer_2" data-name="Layer 2"><g id="Layer_1-2" data-name="Layer 1"><path class="cls-1" d="M3.54,9.93.14,1.79A1.44,1.44,0,0,1,0,1.23,1.13,1.13,0,0,1,1.15.09,1.2,1.2,0,0,1,2.33.9L4.95,7.69,7.6.83A1.2,1.2,0,0,1,8.71.09,1.11,1.11,0,0,1,9.85,1.2a1.35,1.35,0,0,1-.12.51L6.3,9.93A1.36,1.36,0,0,1,5,10.84H4.84A1.36,1.36,0,0,1,3.54,9.93Z"/><path class="cls-1" d="M10.79,5.46v0A5.43,5.43,0,0,1,16.38,0a5.38,5.38,0,0,1,5.56,5.4v0a5.43,5.43,0,0,1-5.59,5.43A5.38,5.38,0,0,1,10.79,5.46Zm8.74,0v0a3.19,3.19,0,0,0-3.18-3.3A3.14,3.14,0,0,0,13.2,5.4v0a3.19,3.19,0,0,0,3.18,3.3A3.14,3.14,0,0,0,19.53,5.46Z"/><path class="cls-1" d="M24,1.25a1.16,1.16,0,1,1,2.31,0V8.58h4.27a1.05,1.05,0,0,1,0,2.1H25.15A1.15,1.15,0,0,1,24,9.52Z"/><path class="cls-1" d="M34.51,9.93l-3.4-8.14A1.44,1.44,0,0,1,31,1.23,1.13,1.13,0,0,1,32.13.09,1.2,1.2,0,0,1,33.3.9l2.63,6.79L38.58.83A1.2,1.2,0,0,1,39.69.09,1.12,1.12,0,0,1,40.83,1.2a1.35,1.35,0,0,1-.12.51L37.27,9.93a1.36,1.36,0,0,1-1.31.92h-.15A1.36,1.36,0,0,1,34.51,9.93Z"/><path class="cls-1" d="M42.6,9.52V1.33A1.15,1.15,0,0,1,43.75.18h5.82a1,1,0,0,1,1,1,1,1,0,0,1-1,1H44.89V4.36h4a1,1,0,0,1,1,1,1,1,0,0,1-1,1h-4V8.63h4.75a1,1,0,0,1,1,1,1,1,0,0,1-1,1H43.75A1.15,1.15,0,0,1,42.6,9.52Z"/><path class="cls-1" d="M52.65,1.33A1.15,1.15,0,0,1,53.8.18h3.64a4.18,4.18,0,0,1,3.06,1.07,3.29,3.29,0,0,1,.9,2.4v0a3.2,3.2,0,0,1-2.1,3.19l1.6,2a1.34,1.34,0,0,1,.38.88,1.07,1.07,0,0,1-1.09,1.07,1.38,1.38,0,0,1-1.14-.6L56.8,7.32H55V9.61a1.16,1.16,0,0,1-2.31,0ZM57.3,5.28c1.13,0,1.77-.6,1.77-1.48v0c0-1-.69-1.5-1.81-1.5H55v3Z"/></g></g></svg>